%FSLAX32Y32*%
%MOMM*%
%LNKUPFERSEITE2*%
G71*
G01*
%ADD10C, 0.20*%
%ADD11C, 2.00*%
%ADD12C, 1.50*%
%ADD13C, 0.75*%
%ADD14C, 2.50*%
%ADD15C, 0.00*%
%ADD16C, 0.06*%
%ADD17C, 0.80*%
%ADD18C, 0.63*%
%ADD19C, 0.30*%
%LPD*%
G54D10*
X6500Y0D02*
X0Y0D01*
X0Y3700D01*
X6500Y3700D01*
X6500Y0D01*
X5738Y3573D02*
G54D11*
D03*
X5484Y3573D02*
G54D11*
D03*
X5230Y3573D02*
G54D11*
D03*
X4976Y3573D02*
G54D11*
D03*
X4722Y3573D02*
G54D11*
D03*
X4468Y3573D02*
G54D11*
D03*
X4214Y3573D02*
G54D11*
D03*
X3960Y3573D02*
G54D11*
D03*
X3706Y3573D02*
G54D11*
D03*
X3452Y3573D02*
G54D11*
D03*
X3198Y3573D02*
G54D11*
D03*
X2944Y3573D02*
G54D11*
D03*
X2690Y3573D02*
G54D11*
D03*
X2436Y3573D02*
G54D11*
D03*
X2182Y3573D02*
G54D11*
D03*
X1928Y3573D02*
G54D11*
D03*
X1674Y3573D02*
G54D11*
D03*
X1420Y3573D02*
G54D11*
D03*
X1166Y3573D02*
G54D11*
D03*
X912Y3573D02*
G54D11*
D03*
X5738Y3319D02*
G54D11*
D03*
X5484Y3319D02*
G54D11*
D03*
X5230Y3319D02*
G54D11*
D03*
X4976Y3319D02*
G54D11*
D03*
X4722Y3319D02*
G54D11*
D03*
X4468Y3319D02*
G54D11*
D03*
X4214Y3319D02*
G54D11*
D03*
X3960Y3319D02*
G54D11*
D03*
X3706Y3319D02*
G54D11*
D03*
X3452Y3319D02*
G54D11*
D03*
X3198Y3319D02*
G54D11*
D03*
X2944Y3319D02*
G54D11*
D03*
X2690Y3319D02*
G54D11*
D03*
X2436Y3319D02*
G54D11*
D03*
X2182Y3319D02*
G54D11*
D03*
X1928Y3319D02*
G54D11*
D03*
X1674Y3319D02*
G54D11*
D03*
X1420Y3319D02*
G54D11*
D03*
X1166Y3319D02*
G54D11*
D03*
X912Y3319D02*
G54D11*
D03*
X150Y2557D02*
G54D11*
D03*
X150Y1287D02*
G54D11*
D03*
X404Y2557D02*
G54D11*
D03*
X658Y2557D02*
G54D11*
D03*
X912Y2557D02*
G54D11*
D03*
X1166Y2557D02*
G54D11*
D03*
X1420Y2557D02*
G54D11*
D03*
X1674Y2557D02*
G54D11*
D03*
X1928Y2557D02*
G54D11*
D03*
X404Y1287D02*
G54D11*
D03*
X658Y1287D02*
G54D11*
D03*
X912Y1287D02*
G54D11*
D03*
X1166Y1287D02*
G54D11*
D03*
X1420Y1287D02*
G54D11*
D03*
X1674Y1287D02*
G54D11*
D03*
X1928Y1287D02*
G54D11*
D03*
X658Y1033D02*
G54D11*
D03*
X1420Y1033D02*
G54D11*
D03*
X1166Y1033D02*
G54D11*
D03*
X912Y1033D02*
G54D11*
D03*
G54D12*
X658Y1287D02*
X658Y1033D01*
G54D12*
X1420Y1287D02*
X1420Y1033D01*
G54D12*
X1166Y1287D02*
X1166Y1033D01*
G54D12*
X912Y1287D02*
X912Y1033D01*
X2436Y2557D02*
G54D11*
D03*
X2690Y2557D02*
G54D11*
D03*
X2944Y2557D02*
G54D11*
D03*
X3198Y2557D02*
G54D11*
D03*
X3452Y2557D02*
G54D11*
D03*
X3706Y2557D02*
G54D11*
D03*
X3960Y2557D02*
G54D11*
D03*
X2182Y2557D02*
G54D11*
D03*
X2436Y1287D02*
G54D11*
D03*
X2944Y1287D02*
G54D11*
D03*
X3198Y1287D02*
G54D11*
D03*
X3452Y1287D02*
G54D11*
D03*
X3706Y1287D02*
G54D11*
D03*
X3960Y1287D02*
G54D11*
D03*
X2690Y1287D02*
G54D11*
D03*
X2182Y1287D02*
G54D11*
D03*
X2690Y1033D02*
G54D11*
D03*
X2944Y1033D02*
G54D11*
D03*
X3452Y1033D02*
G54D11*
D03*
X3198Y1033D02*
G54D11*
D03*
G54D12*
X2690Y1287D02*
X2690Y1033D01*
G54D12*
X3452Y1287D02*
X3452Y1033D01*
G54D12*
X2944Y1287D02*
X2944Y1033D01*
G54D12*
X3198Y1287D02*
X3198Y1033D01*
G54D13*
X2944Y3319D02*
X2944Y3065D01*
X3198Y2811D01*
X3579Y2811D01*
X3706Y2811D01*
X3706Y2557D01*
G54D13*
X3198Y3319D02*
X3198Y3065D01*
X3325Y3065D01*
X3706Y3065D01*
X3960Y2811D01*
X3960Y2557D01*
G54D14*
X5747Y590D02*
X5747Y840D01*
G54D14*
X5147Y590D02*
X5147Y840D01*
G54D15*
X5199Y464D02*
X5099Y464D01*
X5099Y964D01*
X5199Y964D01*
G54D15*
X5199Y964D02*
X5199Y1164D01*
G54D15*
X5199Y464D02*
X5199Y264D01*
G54D15*
X5199Y1164D02*
X6499Y1164D01*
X6499Y264D01*
X5199Y264D01*
G54D15*
X6199Y1164D02*
X6199Y264D01*
G54D15*
X5199Y1064D02*
X6199Y1064D01*
G54D15*
X5199Y364D02*
X6199Y364D01*
G54D14*
X5271Y218D02*
X5521Y218D01*
G54D16*
X5584Y390D02*
X5584Y434D01*
X5567Y434D01*
X5561Y431D01*
X5557Y426D01*
X5557Y398D01*
X5561Y392D01*
X5567Y390D01*
X5584Y390D01*
G54D16*
X5518Y398D02*
X5522Y392D01*
X5528Y390D01*
X5535Y390D01*
X5542Y392D01*
X5545Y398D01*
X5545Y426D01*
X5542Y431D01*
X5535Y434D01*
X5528Y434D01*
X5522Y431D01*
X5518Y426D01*
G54D16*
X5486Y423D02*
X5486Y423D01*
G54D16*
X5493Y378D02*
X5490Y378D01*
X5486Y383D01*
X5486Y414D01*
G54D16*
X5474Y412D02*
X5467Y414D01*
X5459Y414D01*
X5454Y409D01*
X5454Y390D01*
G54D16*
X5454Y398D02*
X5457Y403D01*
X5464Y404D01*
X5471Y403D01*
X5474Y398D01*
X5473Y392D01*
X5467Y390D01*
X5464Y390D01*
X5463Y390D01*
X5457Y392D01*
X5454Y398D01*
G54D16*
X5425Y413D02*
X5432Y414D01*
X5439Y413D01*
X5442Y407D01*
X5442Y396D01*
X5439Y391D01*
X5432Y390D01*
X5425Y391D01*
G54D16*
X5413Y390D02*
X5413Y434D01*
G54D16*
X5403Y406D02*
X5393Y390D01*
G54D16*
X5413Y401D02*
X5393Y414D01*
G54D16*
X5368Y426D02*
X5365Y431D01*
X5358Y434D01*
X5351Y434D01*
X5345Y431D01*
X5341Y426D01*
X5341Y420D01*
X5345Y414D01*
X5351Y412D01*
X5345Y409D01*
X5341Y403D01*
X5341Y398D01*
X5345Y392D01*
X5351Y390D01*
X5358Y390D01*
X5365Y392D01*
X5368Y398D01*
G54D16*
X5302Y426D02*
X5302Y398D01*
X5306Y392D01*
X5312Y390D01*
X5319Y390D01*
X5326Y392D01*
X5329Y398D01*
X5329Y426D01*
X5326Y431D01*
X5319Y434D01*
X5312Y434D01*
X5306Y431D01*
X5302Y426D01*
G54D16*
X5290Y417D02*
X5273Y434D01*
X5273Y390D01*
G54D16*
X5234Y426D02*
X5238Y431D01*
X5244Y434D01*
X5251Y434D01*
X5258Y431D01*
X5261Y426D01*
X5261Y412D01*
X5261Y409D01*
X5251Y414D01*
X5244Y414D01*
X5238Y412D01*
X5234Y406D01*
X5234Y398D01*
X5238Y392D01*
X5244Y390D01*
X5251Y390D01*
X5258Y392D01*
X5261Y398D01*
X5261Y412D01*
G54D15*
X5724Y846D02*
X5724Y586D01*
X5764Y586D01*
X5764Y846D01*
X5724Y846D01*
G54D15*
X5129Y846D02*
X5129Y586D01*
X5169Y586D01*
X5169Y846D01*
X5129Y846D01*
X5150Y820D02*
G54D17*
D03*
X5150Y770D02*
G54D17*
D03*
X5150Y610D02*
G54D17*
D03*
X5150Y660D02*
G54D17*
D03*
X5745Y820D02*
G54D17*
D03*
X5745Y770D02*
G54D17*
D03*
X5745Y610D02*
G54D17*
D03*
X5745Y660D02*
G54D17*
D03*
G54D16*
X5071Y705D02*
X5044Y705D01*
G54D16*
X5058Y716D02*
X5058Y694D01*
G54D16*
X5681Y719D02*
X5654Y719D01*
G54D12*
X2182Y1287D02*
X2182Y525D01*
X5103Y525D01*
X5103Y1160D01*
G54D12*
X150Y1287D02*
X150Y525D01*
X2563Y525D01*
X4722Y1414D02*
G54D11*
D03*
X4722Y1668D02*
G54D11*
D03*
X4722Y1922D02*
G54D11*
D03*
G54D12*
X5865Y1160D02*
X5738Y1033D01*
G54D12*
X5865Y1160D02*
X5865Y1668D01*
X4849Y1668D01*
G54D12*
X5484Y3573D02*
X6373Y3573D01*
X6373Y1922D01*
X4849Y1922D01*
G54D12*
X3960Y1795D02*
X3960Y1795D01*
X3960Y1287D01*
X3960Y1795D01*
X2436Y1795D01*
X2436Y906D01*
X2436Y1795D01*
X1928Y1795D01*
X1928Y1287D01*
X1928Y1541D01*
X1928Y1795D01*
X404Y1795D01*
X404Y906D01*
X3706Y1541D02*
G54D11*
D03*
X1674Y1541D02*
G54D11*
D03*
X3706Y2049D02*
G54D11*
D03*
X1674Y2049D02*
G54D11*
D03*
G54D12*
X3706Y1541D02*
X3706Y1287D01*
G54D12*
X1674Y1541D02*
X1674Y1287D01*
G54D12*
X1928Y2049D02*
X3706Y2049D01*
X4595Y2938D02*
G54D11*
D03*
X6119Y2176D02*
G54D11*
D03*
X6119Y1668D02*
G54D11*
D03*
G54D12*
X5865Y1668D02*
X6119Y1668D01*
G54D12*
X6119Y2176D02*
X6119Y2938D01*
X4722Y2938D01*
X4722Y3319D01*
G54D12*
X3452Y2557D02*
X3198Y2557D01*
G54D12*
X2944Y2557D02*
X2436Y2557D01*
G54D12*
X1420Y2557D02*
X1166Y2557D01*
G54D12*
X912Y2557D02*
X404Y2557D01*
G54D12*
X2690Y2557D02*
X2690Y2049D01*
G54D12*
X658Y2557D02*
X658Y2049D01*
X1928Y2049D01*
X5865Y2938D02*
G54D11*
D03*
X5865Y2684D02*
G54D11*
D03*
X5865Y2430D02*
G54D11*
D03*
X5548Y2684D02*
G54D11*
D03*
X5294Y2684D02*
G54D11*
D03*
X5040Y2684D02*
G54D11*
D03*
X4595Y2684D02*
G54D11*
D03*
X4595Y2430D02*
G54D11*
D03*
G54D12*
X5865Y2684D02*
X5611Y2684D01*
X5548Y2684D01*
G54D12*
X4595Y2684D02*
X5040Y2684D01*
X5294Y2430D02*
G54D11*
D03*
X5294Y1414D02*
G54D11*
D03*
G54D12*
X5294Y2684D02*
X5294Y2430D01*
G54D12*
X5230Y1414D02*
X5230Y779D01*
G54D13*
X912Y3319D02*
X912Y2938D01*
X785Y2811D01*
X277Y2811D01*
X150Y2811D01*
X150Y2557D01*
G54D13*
X1928Y3319D02*
X1928Y3065D01*
X1674Y2811D01*
X1674Y2557D01*
G54D13*
X2182Y3319D02*
X2182Y3065D01*
X1928Y2811D01*
X1928Y2557D01*
G54D13*
X2690Y3319D02*
X2690Y3065D01*
X2563Y2938D01*
X2309Y2938D01*
X2182Y2811D01*
X2182Y2557D01*
X150Y906D02*
G54D11*
D03*
X404Y906D02*
G54D11*
D03*
X2182Y906D02*
G54D11*
D03*
X2436Y906D02*
G54D11*
D03*
G54D12*
X5865Y2430D02*
X5865Y2240D01*
G54D12*
X4595Y2430D02*
X4404Y2430D01*
G54D12*
X3960Y2557D02*
X3960Y2748D01*
G54D12*
X3706Y2557D02*
X3706Y2748D01*
G54D12*
X3198Y3319D02*
X3198Y3128D01*
G54D12*
X2944Y3319D02*
X2944Y3128D01*
G54D12*
X2690Y3319D02*
X2690Y3128D01*
G54D12*
X2182Y3319D02*
X2182Y3128D01*
G54D12*
X1928Y3319D02*
X1928Y3128D01*
G54D12*
X912Y3319D02*
X912Y3128D01*
G54D12*
X2182Y2557D02*
X2182Y2748D01*
G54D12*
X1928Y2557D02*
X1928Y2748D01*
G54D12*
X1674Y2557D02*
X1674Y2748D01*
G54D12*
X150Y2557D02*
X150Y2748D01*
G54D13*
X4468Y3192D02*
X4341Y3065D01*
X4341Y2557D01*
X4341Y2430D01*
X4595Y2430D01*
X4595Y2430D01*
G54D12*
X4595Y2938D02*
X4722Y2938D01*
G54D13*
X4214Y3319D02*
X4214Y3256D01*
X4150Y3192D01*
X4150Y2430D01*
X4404Y2176D01*
X5865Y2176D01*
X5865Y2430D01*
G54D12*
X4468Y1414D02*
X5230Y1414D01*
X5103Y1414D01*
X5103Y1033D01*
G54D12*
X4976Y1414D02*
X5103Y1287D01*
G54D12*
X5103Y779D02*
X5230Y779D01*
G54D13*
X4150Y3128D02*
X4150Y3319D01*
X5548Y2430D02*
G54D11*
D03*
X5040Y2430D02*
G54D11*
D03*
G54D12*
X5040Y2684D02*
X5040Y2430D01*
G54D12*
X5548Y2684D02*
X5548Y2430D01*
G54D12*
X5738Y1033D02*
X5738Y906D01*
X4214Y1668D02*
G54D11*
D03*
X4468Y1668D02*
G54D11*
D03*
X4468Y1414D02*
G54D11*
D03*
X4214Y1922D02*
G54D11*
D03*
G54D12*
X4849Y1668D02*
X3960Y1668D01*
G54D12*
X4849Y1922D02*
X4214Y1922D01*
X4087Y2049D01*
X3706Y2049D01*
G54D12*
X4468Y3192D02*
X4468Y3319D01*
G54D12*
X4214Y3319D02*
X4214Y3192D01*
G54D18*
X1760Y892D02*
X1840Y847D01*
X1866Y803D01*
X1866Y714D01*
G54D18*
X1653Y714D02*
X1653Y1070D01*
X1786Y1070D01*
X1840Y1047D01*
X1866Y1003D01*
X1866Y958D01*
X1840Y914D01*
X1786Y892D01*
X1653Y892D01*
G54D18*
X3792Y714D02*
X3792Y1070D01*
G54D18*
X3685Y1070D02*
X3898Y1070D01*
%LNAUGENFREISTANZEN*%
%LPC*%
X5738Y3573D02*
G54D19*
D03*
X5484Y3573D02*
G54D19*
D03*
X5230Y3573D02*
G54D19*
D03*
X4976Y3573D02*
G54D19*
D03*
X4722Y3573D02*
G54D19*
D03*
X4468Y3573D02*
G54D19*
D03*
X4214Y3573D02*
G54D19*
D03*
X3960Y3573D02*
G54D19*
D03*
X3706Y3573D02*
G54D19*
D03*
X3452Y3573D02*
G54D19*
D03*
X3198Y3573D02*
G54D19*
D03*
X2944Y3573D02*
G54D19*
D03*
X2690Y3573D02*
G54D19*
D03*
X2436Y3573D02*
G54D19*
D03*
X2182Y3573D02*
G54D19*
D03*
X1928Y3573D02*
G54D19*
D03*
X1674Y3573D02*
G54D19*
D03*
X1420Y3573D02*
G54D19*
D03*
X1166Y3573D02*
G54D19*
D03*
X912Y3573D02*
G54D19*
D03*
X5738Y3319D02*
G54D19*
D03*
X5484Y3319D02*
G54D19*
D03*
X5230Y3319D02*
G54D19*
D03*
X4976Y3319D02*
G54D19*
D03*
X4722Y3319D02*
G54D19*
D03*
X4468Y3319D02*
G54D19*
D03*
X4214Y3319D02*
G54D19*
D03*
X3960Y3319D02*
G54D19*
D03*
X3706Y3319D02*
G54D19*
D03*
X3452Y3319D02*
G54D19*
D03*
X3198Y3319D02*
G54D19*
D03*
X2944Y3319D02*
G54D19*
D03*
X2690Y3319D02*
G54D19*
D03*
X2436Y3319D02*
G54D19*
D03*
X2182Y3319D02*
G54D19*
D03*
X1928Y3319D02*
G54D19*
D03*
X1674Y3319D02*
G54D19*
D03*
X1420Y3319D02*
G54D19*
D03*
X1166Y3319D02*
G54D19*
D03*
X912Y3319D02*
G54D19*
D03*
X150Y2557D02*
G54D19*
D03*
X150Y1287D02*
G54D19*
D03*
X404Y2557D02*
G54D19*
D03*
X658Y2557D02*
G54D19*
D03*
X912Y2557D02*
G54D19*
D03*
X1166Y2557D02*
G54D19*
D03*
X1420Y2557D02*
G54D19*
D03*
X1674Y2557D02*
G54D19*
D03*
X1928Y2557D02*
G54D19*
D03*
X404Y1287D02*
G54D19*
D03*
X658Y1287D02*
G54D19*
D03*
X912Y1287D02*
G54D19*
D03*
X1166Y1287D02*
G54D19*
D03*
X1420Y1287D02*
G54D19*
D03*
X1674Y1287D02*
G54D19*
D03*
X1928Y1287D02*
G54D19*
D03*
X658Y1033D02*
G54D19*
D03*
X1420Y1033D02*
G54D19*
D03*
X1166Y1033D02*
G54D19*
D03*
X912Y1033D02*
G54D19*
D03*
X2436Y2557D02*
G54D19*
D03*
X2690Y2557D02*
G54D19*
D03*
X2944Y2557D02*
G54D19*
D03*
X3198Y2557D02*
G54D19*
D03*
X3452Y2557D02*
G54D19*
D03*
X3706Y2557D02*
G54D19*
D03*
X3960Y2557D02*
G54D19*
D03*
X2182Y2557D02*
G54D19*
D03*
X2436Y1287D02*
G54D19*
D03*
X2944Y1287D02*
G54D19*
D03*
X3198Y1287D02*
G54D19*
D03*
X3452Y1287D02*
G54D19*
D03*
X3706Y1287D02*
G54D19*
D03*
X3960Y1287D02*
G54D19*
D03*
X2690Y1287D02*
G54D19*
D03*
X2182Y1287D02*
G54D19*
D03*
X2690Y1033D02*
G54D19*
D03*
X2944Y1033D02*
G54D19*
D03*
X3452Y1033D02*
G54D19*
D03*
X3198Y1033D02*
G54D19*
D03*
X5747Y716D02*
G54D19*
D03*
X5147Y716D02*
G54D19*
D03*
X5396Y218D02*
G54D19*
D03*
X5150Y820D02*
G54D19*
D03*
X5150Y770D02*
G54D19*
D03*
X5150Y610D02*
G54D19*
D03*
X5150Y660D02*
G54D19*
D03*
X5745Y820D02*
G54D19*
D03*
X5745Y770D02*
G54D19*
D03*
X5745Y610D02*
G54D19*
D03*
X5745Y660D02*
G54D19*
D03*
X4722Y1414D02*
G54D19*
D03*
X4722Y1668D02*
G54D19*
D03*
X4722Y1922D02*
G54D19*
D03*
X3706Y1541D02*
G54D19*
D03*
X1674Y1541D02*
G54D19*
D03*
X3706Y2049D02*
G54D19*
D03*
X1674Y2049D02*
G54D19*
D03*
X4595Y2938D02*
G54D19*
D03*
X6119Y2176D02*
G54D19*
D03*
X6119Y1668D02*
G54D19*
D03*
X5865Y2938D02*
G54D19*
D03*
X5865Y2684D02*
G54D19*
D03*
X5865Y2430D02*
G54D19*
D03*
X5548Y2684D02*
G54D19*
D03*
X5294Y2684D02*
G54D19*
D03*
X5040Y2684D02*
G54D19*
D03*
X4595Y2684D02*
G54D19*
D03*
X4595Y2430D02*
G54D19*
D03*
X5294Y2430D02*
G54D19*
D03*
X5294Y1414D02*
G54D19*
D03*
X150Y906D02*
G54D19*
D03*
X404Y906D02*
G54D19*
D03*
X2182Y906D02*
G54D19*
D03*
X2436Y906D02*
G54D19*
D03*
X5548Y2430D02*
G54D19*
D03*
X5040Y2430D02*
G54D19*
D03*
X4214Y1668D02*
G54D19*
D03*
X4468Y1668D02*
G54D19*
D03*
X4468Y1414D02*
G54D19*
D03*
X4214Y1922D02*
G54D19*
D03*
M02*
